<mxfile host="app.diagrams.net" modified="2023-08-23T21:11:47.029Z" agent="Mozilla/5.0 (Macintosh; Intel Mac OS X 10_15_7) AppleWebKit/537.36 (KHTML, like Gecko) Chrome/116.0.0.0 Safari/537.36" etag="LHFl91InmSHkojcd9nvk" version="21.6.6" type="github">
  <diagram name="Page-1" id="zHaGTPVrvm6le7piVSbh">
    <mxGraphModel dx="1908" dy="1284" grid="1" gridSize="10" guides="1" tooltips="1" connect="1" arrows="1" fold="1" page="1" pageScale="1" pageWidth="850" pageHeight="1100" math="0" shadow="0">
      <root>
        <mxCell id="0" />
        <mxCell id="1" parent="0" />
        <mxCell id="4PZmwttRJsgLrQOweq5--2" value="&lt;font style=&quot;font-size: 14px;&quot; face=&quot;Georgia&quot;&gt;Which team won the 2022 World Cup Champion?&lt;/font&gt;" style="rounded=1;whiteSpace=wrap;html=1;fillColor=#dae8fc;strokeColor=#6c8ebf;" vertex="1" parent="1">
          <mxGeometry x="280" y="142" width="180" height="50" as="geometry" />
        </mxCell>
        <mxCell id="4PZmwttRJsgLrQOweq5--3" style="edgeStyle=orthogonalEdgeStyle;rounded=0;orthogonalLoop=1;jettySize=auto;html=1;exitX=1;exitY=0.5;exitDx=0;exitDy=0;endArrow=classicThin;endFill=1;" edge="1" parent="1">
          <mxGeometry relative="1" as="geometry">
            <mxPoint x="640" y="167.0000000000001" as="sourcePoint" />
            <mxPoint x="690" y="167" as="targetPoint" />
          </mxGeometry>
        </mxCell>
        <mxCell id="4PZmwttRJsgLrQOweq5--4" value="&lt;font face=&quot;Georgia&quot; style=&quot;&quot;&gt;&lt;font style=&quot;font-size: 24px;&quot;&gt;LLM&lt;/font&gt;&lt;br&gt;&lt;/font&gt;" style="ellipse;whiteSpace=wrap;html=1;fillColor=#ffe6cc;strokeColor=#d79b00;" vertex="1" parent="1">
          <mxGeometry x="500" y="126" width="140" height="80" as="geometry" />
        </mxCell>
        <mxCell id="4PZmwttRJsgLrQOweq5--5" style="edgeStyle=orthogonalEdgeStyle;rounded=0;orthogonalLoop=1;jettySize=auto;html=1;exitX=1;exitY=0.5;exitDx=0;exitDy=0;entryX=0;entryY=0.5;entryDx=0;entryDy=0;endArrow=classicThin;endFill=1;" edge="1" parent="1">
          <mxGeometry relative="1" as="geometry">
            <mxPoint x="460" y="167" as="sourcePoint" />
            <mxPoint x="500" y="167.0000000000001" as="targetPoint" />
          </mxGeometry>
        </mxCell>
        <mxCell id="4PZmwttRJsgLrQOweq5--16" value="&lt;font style=&quot;font-size: 14px;&quot; face=&quot;Georgia&quot;&gt;It&#39;s &lt;font color=&quot;#ff0000&quot;&gt;France&lt;/font&gt;.&lt;/font&gt;" style="rounded=1;whiteSpace=wrap;html=1;fillColor=#f8cecc;strokeColor=#b85450;" vertex="1" parent="1">
          <mxGeometry x="690" y="152" width="110" height="30" as="geometry" />
        </mxCell>
        <mxCell id="4PZmwttRJsgLrQOweq5--18" value="&lt;font style=&quot;font-size: 14px;&quot; face=&quot;Georgia&quot;&gt;Which team won the 2022 World Cup Champion?&lt;/font&gt;" style="rounded=1;whiteSpace=wrap;html=1;fillColor=#dae8fc;strokeColor=#6c8ebf;" vertex="1" parent="1">
          <mxGeometry x="280" y="263" width="180" height="50" as="geometry" />
        </mxCell>
        <mxCell id="4PZmwttRJsgLrQOweq5--19" style="edgeStyle=orthogonalEdgeStyle;rounded=0;orthogonalLoop=1;jettySize=auto;html=1;exitX=1;exitY=0.5;exitDx=0;exitDy=0;endArrow=classicThin;endFill=1;entryX=0;entryY=0.5;entryDx=0;entryDy=0;" edge="1" parent="1" source="4PZmwttRJsgLrQOweq5--20" target="4PZmwttRJsgLrQOweq5--23">
          <mxGeometry relative="1" as="geometry">
            <mxPoint x="690" y="288" as="targetPoint" />
          </mxGeometry>
        </mxCell>
        <mxCell id="4PZmwttRJsgLrQOweq5--20" value="&lt;font face=&quot;Georgia&quot; style=&quot;&quot;&gt;&lt;font style=&quot;font-size: 24px;&quot;&gt;LLM&lt;/font&gt;&lt;br&gt;&lt;/font&gt;" style="ellipse;whiteSpace=wrap;html=1;fillColor=#ffe6cc;strokeColor=#d79b00;" vertex="1" parent="1">
          <mxGeometry x="500" y="248" width="140" height="80" as="geometry" />
        </mxCell>
        <mxCell id="4PZmwttRJsgLrQOweq5--21" style="edgeStyle=orthogonalEdgeStyle;rounded=0;orthogonalLoop=1;jettySize=auto;html=1;exitX=1;exitY=0.5;exitDx=0;exitDy=0;entryX=0;entryY=0.5;entryDx=0;entryDy=0;endArrow=classicThin;endFill=1;" edge="1" parent="1" target="4PZmwttRJsgLrQOweq5--20">
          <mxGeometry relative="1" as="geometry">
            <mxPoint x="460" y="288" as="sourcePoint" />
          </mxGeometry>
        </mxCell>
        <mxCell id="4PZmwttRJsgLrQOweq5--22" value="&lt;font style=&quot;font-size: 14px;&quot; face=&quot;Georgia&quot;&gt;It&#39;s &lt;font color=&quot;#00994d&quot;&gt;Argentina&lt;/font&gt;.&lt;/font&gt;" style="rounded=1;whiteSpace=wrap;html=1;fillColor=#d5e8d4;strokeColor=#82b366;" vertex="1" parent="1">
          <mxGeometry x="950" y="348" width="110" height="30" as="geometry" />
        </mxCell>
        <mxCell id="4PZmwttRJsgLrQOweq5--25" style="edgeStyle=orthogonalEdgeStyle;rounded=0;orthogonalLoop=1;jettySize=auto;html=1;exitX=0.5;exitY=1;exitDx=0;exitDy=0;entryX=0;entryY=0.5;entryDx=0;entryDy=0;endArrow=classicThin;endFill=1;" edge="1" parent="1" source="4PZmwttRJsgLrQOweq5--23" target="4PZmwttRJsgLrQOweq5--22">
          <mxGeometry relative="1" as="geometry" />
        </mxCell>
        <mxCell id="4PZmwttRJsgLrQOweq5--26" style="edgeStyle=orthogonalEdgeStyle;rounded=0;orthogonalLoop=1;jettySize=auto;html=1;exitX=0.5;exitY=0;exitDx=0;exitDy=0;endArrow=none;endFill=0;" edge="1" parent="1" source="4PZmwttRJsgLrQOweq5--23">
          <mxGeometry relative="1" as="geometry">
            <mxPoint x="930" y="218" as="targetPoint" />
            <Array as="points">
              <mxPoint x="820" y="218" />
              <mxPoint x="930" y="218" />
            </Array>
          </mxGeometry>
        </mxCell>
        <mxCell id="4PZmwttRJsgLrQOweq5--23" value="&lt;font face=&quot;Georgia&quot; style=&quot;font-size: 18px;&quot;&gt;Self-Evaluating&lt;/font&gt;" style="rhombus;whiteSpace=wrap;html=1;fillColor=#f5f5f5;fontColor=#333333;strokeColor=#666666;" vertex="1" parent="1">
          <mxGeometry x="740" y="238" width="160" height="100" as="geometry" />
        </mxCell>
        <mxCell id="4PZmwttRJsgLrQOweq5--27" value="&lt;font style=&quot;font-size: 14px;&quot; face=&quot;Georgia&quot;&gt;It&#39;s &lt;font color=&quot;#00994d&quot;&gt;Argentina&lt;/font&gt;.&lt;/font&gt;" style="rounded=1;whiteSpace=wrap;html=1;fillColor=#d5e8d4;strokeColor=#82b366;" vertex="1" parent="1">
          <mxGeometry x="1030" y="243" width="110" height="30" as="geometry" />
        </mxCell>
        <mxCell id="4PZmwttRJsgLrQOweq5--29" value="&lt;font face=&quot;Courier New&quot; style=&quot;font-size: 17px;&quot;&gt;&lt;b style=&quot;font-size: 17px;&quot;&gt;Unknown&lt;/b&gt;&lt;/font&gt;" style="text;html=1;align=center;verticalAlign=middle;resizable=0;points=[];autosize=1;strokeColor=none;fillColor=none;fontColor=#000000;fontSize=17;" vertex="1" parent="1">
          <mxGeometry x="830" y="188" width="90" height="30" as="geometry" />
        </mxCell>
        <mxCell id="4PZmwttRJsgLrQOweq5--30" value="&lt;font face=&quot;Courier New&quot; style=&quot;font-size: 17px;&quot;&gt;&lt;b style=&quot;font-size: 17px;&quot;&gt;Known&lt;/b&gt;&lt;/font&gt;" style="text;html=1;align=center;verticalAlign=middle;resizable=0;points=[];autosize=1;strokeColor=none;fillColor=none;fontColor=#000000;fontSize=17;" vertex="1" parent="1">
          <mxGeometry x="840" y="338" width="70" height="30" as="geometry" />
        </mxCell>
        <mxCell id="4PZmwttRJsgLrQOweq5--31" value="" style="endArrow=none;html=1;rounded=0;" edge="1" parent="1">
          <mxGeometry width="50" height="50" relative="1" as="geometry">
            <mxPoint x="930" y="258" as="sourcePoint" />
            <mxPoint x="930" y="178" as="targetPoint" />
          </mxGeometry>
        </mxCell>
        <mxCell id="4PZmwttRJsgLrQOweq5--32" value="" style="endArrow=classicThin;html=1;rounded=0;endFill=1;" edge="1" parent="1">
          <mxGeometry width="50" height="50" relative="1" as="geometry">
            <mxPoint x="930" y="258" as="sourcePoint" />
            <mxPoint x="1030" y="258" as="targetPoint" />
          </mxGeometry>
        </mxCell>
        <mxCell id="4PZmwttRJsgLrQOweq5--33" value="&lt;font face=&quot;Georgia&quot;&gt;&lt;span style=&quot;font-size: 14px;&quot;&gt;Sorry, I don&#39;t know.&lt;/span&gt;&lt;/font&gt;" style="rounded=1;whiteSpace=wrap;html=1;fillColor=#d5e8d4;strokeColor=#82b366;" vertex="1" parent="1">
          <mxGeometry x="1030" y="163" width="150" height="30" as="geometry" />
        </mxCell>
        <mxCell id="4PZmwttRJsgLrQOweq5--34" value="" style="endArrow=classicThin;html=1;rounded=0;endFill=1;" edge="1" parent="1">
          <mxGeometry width="50" height="50" relative="1" as="geometry">
            <mxPoint x="930" y="178" as="sourcePoint" />
            <mxPoint x="1030" y="178" as="targetPoint" />
          </mxGeometry>
        </mxCell>
      </root>
    </mxGraphModel>
  </diagram>
</mxfile>
